<?xml version="1.0" standalone="no"?>
<!DOCTYPE svg PUBLIC "-//W3C//DTD SVG 20010904//EN"
 "http://www.w3.org/TR/2001/REC-SVG-20010904/DTD/svg10.dtd">
<svg version="1.0" xmlns="http://www.w3.org/2000/svg"
 width="512.000000pt" height="512.000000pt" viewBox="0 0 512.000000 512.000000"
 preserveAspectRatio="xMidYMid meet">

<g transform="translate(0.000000,512.000000) scale(0.100000,-0.100000)"
fill="#000000" stroke="none">
<path d="M3981 4468 c-24 -4 -55 -18 -69 -30 -51 -48 -52 -56 -52 -371 0 -332
8 -389 75 -516 70 -133 213 -256 345 -297 l60 -19 0 -1078 c0 -1172 3 -1114
-56 -1169 -71 -66 -182 -62 -246 9 -49 54 -48 40 -48 868 0 844 0 851 -57 993
-59 146 -190 298 -330 381 -63 37 -198 91 -230 91 -10 0 -13 -32 -13 -149 l0
-148 66 -33 c113 -55 212 -174 255 -305 10 -31 14 -225 19 -865 l5 -825 23
-57 c48 -118 152 -223 269 -269 49 -20 77 -24 173 -24 112 0 117 1 190 36 119
58 194 136 246 259 18 43 19 90 24 1164 l5 1119 50 17 c202 69 352 228 411
435 14 49 18 117 21 360 4 298 4 300 -19 345 -13 26 -37 53 -58 65 -34 19 -52
20 -525 21 -269 0 -510 -3 -534 -8z"/>
<path d="M1750 150 l0 -150 818 0 818 0 44 22 c98 51 108 185 19 249 l-34 24
-832 3 -833 2 0 -150z"/>
</g>
</svg>
